<?xml version="1.0" ?><svg id="Layer_1" style="enable-background:new 0 0 77 73;" version="1.1" viewBox="0 0 77 73" xml:space="preserve" xmlns="http://www.w3.org/2000/svg" xmlns:xlink="http://www.w3.org/1999/xlink"><title/><g id="Layer_2"><g id="Layer_3"><path d="M38.5,67.5L10.8,39.8C3,31.8,3.2,19,11.2,11.2c7.5-7.3,19.4-7.7,27.3-0.8c8-6.9,20-6.5,27.5,1l0,0    c7.8,7.8,7.9,20.5,0.2,28.4l0,0L38.5,67.5z M13.3,38l25.3,25.3l25.4-25.4c6.7-6.7,6.7-17.7,0-24.4c0,0,0,0,0,0l0,0    c-6.7-6.7-17.6-6.7-24.4,0l-1.1,1.1l-1.1-1.1c-6.7-6.8-17.6-6.8-24.4-0.2s-6.8,17.6-0.2,24.4l0.2,0.1L13.3,38z"/></g></g></svg>